HIERARCHY
ROOT Hips
{
	OFFSET 0.00000 0.00000 0.00000
	CHANNELS 6 Xposition Yposition Zposition Yrotation Zrotation Xrotation 
	JOINT Lumbar
	{
		OFFSET 0 0 0
		CHANNELS 3 Zrotation Xrotation Yrotation
		JOINT Neck
		{
			OFFSET 0.00 0.2701 0.00
			CHANNELS 3 Zrotation Xrotation Yrotation
			End Site
			{
				OFFSET 0.00 0.1379 0.00
			}
		}
		JOINT RightShoulder
		{
			OFFSET 0.0119 0.2289 0.1181
			CHANNELS 3 Zrotation Xrotation Yrotation
			JOINT RightElbow
			{
				OFFSET 0.00 -0.1475 0.00
				CHANNELS 2 Zrotation Yrotation
				JOINT RightWrist
				{
					OFFSET 0.00 -0.1605 0.00
					CHANNELS 2 Zrotation Xrotation
					End Site
					{
						OFFSET 0.0040 -0.1068 0.0006
					}
				}
			}
		}
		JOINT LeftShoulder
		{
			OFFSET 0.0119 0.2289 -0.1181
			CHANNELS 3 Zrotation Xrotation Yrotation
			JOINT LeftElbow
			{
				OFFSET 0.00 -0.1475 0.00
				CHANNELS 2 Zrotation Yrotation
				JOINT LeftWrist
				{
					OFFSET 0.00 -0.1605 0.00
					CHANNELS 2 Zrotation Xrotation
					End Site
					{
						OFFSET 0.0040 -0.1068 -0.0006
					}
				}
			}
		}
	}
	JOINT RightHip
	{
		OFFSET 0.0316 -0.0424 0.0458
		CHANNELS 3 Zrotation Xrotation Yrotation
		JOINT RightKnee
		{
			OFFSET 0.00 -0.2438 0.00
			CHANNELS 1 Zrotation
			JOINT RightAnkle
			{
				OFFSET 0.00 -0.2449 0.00
				CHANNELS 3 Zrotation Xrotation Yrotation
				End Site
				{
					OFFSET 0.1237 -0.0542 0.0051
				}
			}
		}
	}
	JOINT LeftHip
	{
		OFFSET 0.0316 -0.0424 -0.0458
		CHANNELS 3 Zrotation Xrotation Yrotation
		JOINT LeftKnee
		{
			OFFSET 0.00 -0.2438 0.00
			CHANNELS 1 Zrotation
			JOINT LeftAnkle
			{
				OFFSET 0.00 -0.2449 0.00
				CHANNELS 3 Zrotation Xrotation Yrotation
				End Site
				{
					OFFSET 0.1237 -0.0542 -0.0051
				}
			}
		}
	}
}
MOTION
Frames: 30
Frame Time: 0.02
0.54887 0.09919 -0.22249 391.04085 -24.60476 -4.68858 47.82866 -2.65291 -23.71617 6.96199 -16.27507 -2.11994 6.21632 -32.1029 -24.45515 133.61992 121.9587 19.25252 5.05501 11.66516 -1.77896 -53.4221 87.35929 -101.80462 30.69589 0.47003 26.63706 -3.79502 -5.14063 -53.19403 -7.64223 -1.3994 -2.96533 49.26544 -1.014 18.73072 -33.05194 -6.4691 3.32274 3.83873
0.55373 0.10151 -0.22748 392.58711 -24.506 -5.58543 47.20389 -2.38306 -24.4362 6.92391 -16.26817 -2.11994 5.51079 -31.78592 -24.8276 133.73766 121.40161 19.0278 4.96975 12.03787 -1.70549 -53.35917 87.12574 -101.78648 30.23378 0.43982 29.15803 -3.74341 -6.10374 -54.86789 -7.48402 -1.63923 -3.07351 47.67077 -0.87097 17.55554 -32.06993 -6.40698 3.23344 3.7917
0.55809 0.1037 -0.23221 394.34759 -24.44288 -6.59702 46.52644 -2.08027 -25.21842 6.79487 -16.1769 -2.11994 4.45134 -31.49371 -25.36316 133.88866 120.84204 18.73101 4.9057 12.28652 -1.79309 -53.26865 86.69783 -101.87871 29.52225 0.37422 31.45034 -3.6416 -7.31623 -55.16291 -7.2746 -1.88473 -3.18476 46.15623 -0.5686 16.29342 -31.122 -6.34979 3.11784 3.73222
0.56267 0.10593 -0.23704 396.01336 -24.37578 -7.54751 45.88258 -1.79569 -25.95531 6.70456 -16.11634 -2.11994 3.57228 -31.19646 -25.81462 134.02023 120.28806 18.46631 4.83332 12.57456 -1.8099 -53.19079 86.374 -101.92592 28.92499 0.32316 33.84948 -3.55137 -8.33972 -56.02667 -7.08426 -2.12232 -3.29223 44.62212 -0.32757 15.12492 -30.16729 -6.29197 3.0089 3.67605
0.56725 0.10826 -0.24191 397.66765 -24.25561 -8.54292 45.18898 -1.49314 -26.76564 6.62678 -16.08238 -2.11994 2.60886 -30.86815 -26.30678 134.17084 119.70817 18.20051 4.75406 12.93845 -1.81258 -53.11077 85.99175 -101.95525 28.31737 0.27763 36.25597 -3.49997 -9.68331 -57.14607 -6.87169 -2.36892 -3.40308 43.0171 -0.12911 13.72298 -29.17115 -6.22868 2.92174 3.62959
0.57172 0.11034 -0.24665 399.39759 -24.25557 -9.46838 44.5905 -1.22218 -27.43675 6.50055 -15.97526 -2.11994 1.74005 -30.61215 -26.7519 134.2895 119.18519 17.9223 4.6949 13.11342 -1.88361 -53.02959 85.68185 -102.04463 27.67609 0.21268 38.58504 -3.36219 -10.42238 -57.40418 -6.70707 -2.60119 -3.50914 41.57977 0.19267 12.78011 -28.27112 -6.17754 2.784 3.56041
0.57601 0.11177 -0.25108 401.2754 -24.57153 -10.18346 44.26082 -1.0424 -27.71412 6.26471 -15.68555 -2.11994 1.19075 -30.55122 -27.04654 134.31024 118.80815 17.61573 4.6831 12.7956 -2.11469 -52.94882 85.61997 -102.29761 26.98477 0.10164 40.75739 -2.95891 -9.39036 -55.58432 -6.70703 -2.81859 -3.61438 40.5717 0.83639 13.23213 -27.62764 -6.15745 2.50223 3.4264
0.58021 0.11295 -0.2554 403.22377 -25.00841 -10.8211 44.03129 -0.89689 -27.84804 5.98267 -15.32629 -2.11994 0.75366 -30.56253 -27.28526 134.2978 118.49033 17.30149 4.69115 12.29167 -2.40778 -52.8686 85.6361 -102.60292 26.27265 -0.02717 42.85552 -2.47796 -7.74806 -52.95068 -6.7596 -3.01892 -3.71347 39.73115 1.59501 14.13262 -27.07934 -6.14934 2.17194 3.27065
0.58445 0.11422 -0.25978 405.145 -25.39482 -11.48648 43.76127 -0.73892 -28.04361 5.72038 -15.00032 -2.11994 0.28417 -30.54063 -27.53706 134.30144 118.15559 16.99916 4.69268 11.87322 -2.66602 -52.7904 85.61526 -102.86707 25.5821 -0.14725 44.9857 -2.05969 -6.41163 -50.71105 -6.78081 -3.21209 -3.80779 38.82416 2.28671 14.7589 -26.48994 -6.1365 1.87148 3.12844
0.58868 0.11557 -0.26409 407.05171 -25.76421 -12.18829 43.46733 -0.56649 -28.25619 5.46033 -14.66364 -2.11994 -0.27452 -30.52151 -27.84568 134.30209 117.78349 16.65973 4.68589 11.44648 -2.95754 -52.70172 85.59524 -103.20616 24.82993 -0.27219 47.12041 -1.52609 -4.96468 -48.31905 -6.82972 -3.46761 -3.93368 37.88282 3.04422 15.67427 -25.89726 -6.12126 1.5392 2.97126
0.59292 0.1167 -0.26853 409.00414 -26.19645 -12.79325 43.24861 -0.43285 -28.39861 5.18564 -14.33457 -2.11994 -0.61818 -30.51293 -28.02168 134.3006 117.49704 16.39543 4.69899 10.99473 -3.19291 -52.63527 85.59323 -103.40303 24.20651 -0.38969 49.22459 -1.21228 -3.5983 -46.07212 -6.83576 -3.58985 -3.99274 37.04706 3.69221 16.10125 -25.32768 -6.11325 1.25958 2.83913
0.59722 0.11728 -0.27334 411.05192 -26.77995 -13.15818 43.20645 -0.39746 -28.38085 4.88408 -14.03808 -2.11994 -0.37602 -30.51972 -27.83442 134.30154 117.48868 16.35237 4.77891 10.51723 -3.25301 -52.63095 85.6338 -103.16871 23.9277 -0.49158 51.31483 -1.54789 -2.61766 -44.40496 -6.69975 -3.34328 -3.86558 36.5017 3.98934 15.01665 -24.84779 -6.12152 1.15018 2.78716
0.60156 0.11765 -0.2783 413.14501 -27.42106 -13.42624 43.23821 -0.40018 -28.29752 4.56969 -13.75308 -2.11994 0.07711 -30.53335 -27.51669 134.30125 117.5554 16.38367 4.87548 10.02221 -3.25462 -52.64901 85.68855 -102.79353 23.78348 -0.5836 53.36651 -2.10337 -1.73747 -42.92273 -6.52127 -2.96423 -3.67204 36.04883 4.17579 13.43413 -24.37759 -6.13295 1.08748 2.7575
0.60589 0.11812 -0.28323 415.22487 -28.03071 -13.7324 43.2406 -0.38596 -28.24473 4.25982 -13.46682 -2.11994 0.42224 -30.54169 -27.26505 134.30123 117.54924 16.37306 4.95266 9.53701 -3.28548 -52.65633 85.72991 -102.4993 23.58938 -0.67366 55.40491 -2.54289 -0.79809 -41.37554 -6.36963 -2.64896 -3.51093 35.52722 4.42481 12.11667 -23.87167 -6.14823 1.0023 2.71731
0.61015 0.11856 -0.28798 417.27513 -28.66653 -14.06059 43.22805 -0.37135 -28.18333 3.95267 -13.16139 -2.11994 0.82097 -30.56348 -26.98337 134.30134 117.70315 16.39501 5.07824 9.03652 -3.30728 -52.66586 85.8031 -102.13613 23.34659 -0.79095 57.5778 -3.04687 0.11424 -39.71758 -6.18765 -2.31754 -3.33982 35.12478 4.62407 10.65665 -23.50507 -6.15723 0.94409 2.68884
0.61457 0.11902 -0.29315 419.39825 -29.2604 -14.32131 43.26359 -0.36609 -28.12679 3.63884 -12.89948 -2.11994 1.15835 -30.55578 -26.73335 134.30123 117.54778 16.36868 5.10948 8.56725 -3.33332 -52.67633 85.81251 -101.88159 23.23765 -0.84972 59.45344 -3.47047 1.03988 -38.34617 -6.05846 -1.98912 -3.17413 34.49327 4.90175 9.36253 -22.8446 -6.1603 0.81211 2.62792
0.6194 0.11957 -0.29933 421.69847 -29.71984 -14.41629 43.40723 -0.37767 -28.09472 3.29829 -12.75566 -2.11994 1.26106 -30.48343 -26.60796 134.30139 116.45746 16.1753 4.85126 8.18057 -3.38377 -52.68175 85.64112 -101.96873 23.46435 -0.74267 60.59448 -3.6117 2.12233 -37.71699 -6.08177 -1.69667 -3.03747 33.21343 5.40074 8.70711 -21.41432 -6.32234 0.72671 2.59363
0.62441 0.12014 -0.30593 424.07204 -30.13531 -14.44793 43.59738 -0.39693 -28.07134 2.95405 -12.65527 -2.11994 1.29678 -30.37765 -26.51815 134.30119 115.06355 15.93329 4.50141 7.82855 -3.44041 -52.6877 85.40499 -102.16889 23.82126 -0.57826 61.4237 -3.66504 3.20197 -37.37455 -6.15975 -1.41309 -2.90914 31.69959 5.9863 8.2235 -19.68228 -6.45131 0.52414 2.50668
0.62937 0.12072 -0.31238 426.42077 -30.57328 -14.5107 43.77018 -0.41254 -28.04812 2.61892 -12.53517 -2.11994 1.37163 -30.27432 -26.40894 134.30125 113.8508 15.72434 4.21059 7.46652 -3.49501 -52.69485 85.19886 -102.31166 24.11957 -0.44429 62.34584 -3.76463 4.21571 -36.90779 -6.21533 -1.12821 -2.77826 30.28521 6.54592 7.61931 -18.05513 -6.47226 0.19457 2.3598
0.63419 0.12122 -0.31866 428.73718 -31.00273 -14.55913 43.92995 -0.43097 -28.00564 2.25099 -12.41619 -2.11994 1.41729 -30.22385 -26.30907 134.30184 112.46303 15.47348 3.84967 7.07864 -3.54457 -52.69686 84.99057 -102.47305 24.42079 -0.29132 63.47286 -3.84943 5.50505 -36.42242 -6.26062 -0.82581 -2.63926 28.89561 7.0441 7.1738 -16.55202 -6.98827 0.59765 2.55377
0.63935 0.12189 -0.3254 431.13534 -31.43865 -14.62492 44.12651 -0.44384 -28.00563 1.95185 -12.30395 -2.11994 1.50498 -30.05675 -26.19956 134.29999 111.36087 15.29519 3.60936 6.75418 -3.60655 -52.70921 84.77155 -102.62676 24.74427 -0.1647 64.09926 -3.93601 6.22706 -36.04066 -6.33899 -0.56546 -2.52075 27.40713 7.69361 6.44959 -14.73441 -6.49601 -0.51613 2.04253
0.64548 0.12297 -0.33333 433.76164 -31.90307 -14.74306 44.41607 -0.44829 -28.12583 1.83372 -12.20927 -2.11994 1.7247 -29.56288 -26.05842 134.30291 111.17503 15.34856 3.75483 6.58725 -3.70392 -52.7514 84.53585 -102.71093 25.10422 -0.12235 63.42145 -4.09455 5.32714 -35.88225 -6.51192 -0.40476 -2.45075 25.62216 8.72708 4.87672 -11.99075 -2.96395 -6.10644 -0.55067
0.65194 0.12421 -0.34171 436.46369 -32.37509 -14.88286 44.73988 -0.44532 -28.28763 1.78679 -12.11814 -2.11994 1.98795 -28.95531 -25.90645 134.30165 111.27936 15.47314 4.01989 6.48475 -3.81323 -52.80358 84.29234 -102.78768 25.48014 -0.10894 62.25004 -4.24908 3.86555 -35.81514 -6.71361 -0.28917 -2.40247 23.76145 9.91165 3.0273 -8.96752 1.53212 -13.15566 -3.82216
0.65822 0.1254 -0.34987 439.11743 -32.84355 -15.02126 45.04611 -0.43946 -28.42767 1.71389 -12.01893 -2.11994 2.23058 -28.40805 -25.75748 134.29433 111.2121 15.5514 4.2092 6.35883 -3.91582 -52.85012 84.0538 -102.88259 25.84357 -0.08403 61.30409 -4.37352 2.7005 -35.70163 -6.89113 -0.1633 -2.34868 21.98645 11.03742 1.33068 -6.1558 5.41438 -19.33549 -6.68922
0.66464 0.1265 -0.35811 441.83222 -33.31146 -15.12409 45.36356 -0.45925 -28.58095 1.6142 -11.94812 -2.11994 2.47488 -27.82258 -25.61721 134.319 111.29117 15.68487 4.48237 6.20937 -4.02466 -52.90132 83.80572 -102.92044 26.23368 -0.05036 60.34404 -4.62663 1.36811 -35.62248 -7.11634 0.00446 -2.27712 19.98225 12.12921 -0.47668 -2.96859 10.04103 -26.40992 -9.973
0.67084 0.12784 -0.36628 444.43709 -33.78224 -15.30402 45.66387 -0.4251 -28.71529 1.58689 -11.81894 -2.11994 2.72644 -27.29085 -25.45652 134.27805 111.15185 15.72348 4.61459 6.12378 -4.12247 -52.94521 83.57812 -103.07198 26.57037 -0.04227 59.29816 -4.61581 0.242 -35.48527 -7.24963 0.07563 -2.24712 18.44618 13.32061 -2.11884 -0.51156 13.34395 -31.94183 -12.5381
0.67642 0.1298 -0.3742 446.71683 -34.26493 -15.71723 45.91895 -0.23175 -28.79646 1.74598 -11.52366 -2.11994 2.99125 -26.93008 -25.23618 134.03946 110.22132 15.46007 4.29273 6.19911 -4.19346 -52.96596 83.39526 -103.55518 26.7535 -0.10056 58.15592 -3.84343 -0.09923 -35.20231 -7.11074 -0.12023 -2.33105 18.17665 14.7993 -3.25688 -0.05508 12.77347 -33.07126 -13.05123
0.68176 0.132 -0.38201 448.883 -34.74941 -16.20266 46.15329 0.01372 -28.85504 1.97511 -11.17044 -2.11994 3.26142 -26.62903 -24.9967 133.73811 109.08251 15.10287 3.8315 6.33645 -4.25149 -52.97902 83.23611 -104.14923 26.88172 -0.18335 56.94297 -2.81222 -0.22701 -34.85004 -6.88013 -0.4097 -2.4552 18.39197 16.36234 -4.21568 -0.36296 10.83689 -32.56379 -12.80194
0.68717 0.13409 -0.38983 451.1035 -35.22937 -16.63871 46.39014 0.22707 -28.91824 2.16911 -10.84568 -2.11994 3.52698 -26.30352 -24.76963 133.47713 108.11984 14.80408 3.45852 6.44481 -4.3114 -52.99602 83.07543 -104.68187 27.03622 -0.25337 55.74993 -1.9221 -0.50481 -34.50299 -6.69872 -0.64876 -2.55792 18.41375 17.85545 -5.24516 -0.37428 9.5103 -32.65682 -12.83309
0.69276 0.13618 -0.39787 453.3174 -35.72503 -17.146 46.65785 0.47502 -29.00803 2.37796 -10.51047 -2.11994 3.80335 -25.96035 -24.5262 133.16652 106.83082 14.44237 2.98653 6.55809 -4.38952 -53.01176 82.87553 -105.26207 27.18712 -0.3313 54.58786 -0.93293 -0.58244 -34.2676 -6.48686 -0.92227 -2.67462 18.313 19.49171 -6.33205 -0.15036 8.25146 -33.38016 -13.15473
